<svg width="488" height="295" viewBox="0 0 488 295" fill="none" xmlns="http://www.w3.org/2000/svg">
<path d="M464.057 147.5C464.057 177.766 441.814 207.28 401.197 229.803C360.923 252.136 304.606 266.261 241.855 266.261C179.103 266.261 122.787 252.136 82.5127 229.803C41.8958 207.28 19.6527 177.766 19.6527 147.5C19.6527 117.234 41.8958 87.7204 82.5127 65.1974C122.787 42.8644 179.103 28.7386 241.855 28.7386C304.606 28.7386 360.923 42.8644 401.197 65.1974C441.814 87.7204 464.057 117.234 464.057 147.5Z" stroke="#CACACA" stroke-width="20"/>
<ellipse cx="182.33" cy="26.7695" rx="26.8132" ry="26.7695" fill="#E4E4E4"/>
<ellipse cx="393.618" cy="53.539" rx="26.8132" ry="26.7695" fill="#4AE99C"/>
<ellipse cx="26.8132" cy="133.848" rx="26.8132" ry="26.7695" fill="#E4E4E4"/>
<ellipse cx="447.244" cy="205.054" rx="26.8132" ry="26.7695" fill="#4AE99C"/>
<ellipse cx="259.552" cy="268.23" rx="26.8132" ry="26.7695" fill="#E4E4E4"/>
<ellipse cx="53.6264" cy="214.691" rx="26.8132" ry="26.7695" fill="#E4E4E4"/>
<ellipse cx="155.516" cy="268.23" rx="26.8132" ry="26.7695" fill="#E4E4E4"/>
<ellipse cx="375.385" cy="249.492" rx="26.8132" ry="26.7695" fill="#E4E4E4"/>
<ellipse cx="304.062" cy="26.7695" rx="26.8132" ry="26.7695" fill="#E4E4E4"/>
<ellipse cx="461.187" cy="107.078" rx="26.8132" ry="26.7695" fill="#4AE99C"/>
<path d="M107.253 61.0345C107.253 75.8189 95.2481 87.804 80.4396 87.804C65.631 87.804 53.6264 75.8189 53.6264 61.0345C53.6264 46.2501 65.631 34.265 80.4396 34.265C95.2481 34.265 107.253 46.2501 107.253 61.0345Z" fill="#E4E4E4"/>
</svg>
