<svg width="519" height="452" viewBox="0 0 519 452" fill="none" xmlns="http://www.w3.org/2000/svg">
<g clip-path="url(#clip0_20_774)">
<path d="M519 446.397L147.475 452L0 425.851H230.229L519 446.397Z" fill="#E6E6E6"/>
<path d="M105.136 428.959C105.136 428.959 106.006 410.735 123.827 412.853L105.136 428.959Z" fill="#3F3D56"/>
<path d="M100.101 411.617C105.027 411.617 109.02 407.622 109.02 402.694C109.02 397.765 105.027 393.77 100.101 393.77C95.1748 393.77 91.1814 397.765 91.1814 402.694C91.1814 407.622 95.1748 411.617 100.101 411.617Z" fill="#4AE99C"/>
<path d="M101.167 417.72H98.6495V435.352H101.167V417.72Z" fill="#3F3D56"/>
<path d="M398.871 432.072C398.871 432.072 399.741 413.848 417.562 415.966L398.871 432.072Z" fill="#3F3D56"/>
<path d="M393.836 414.73C398.762 414.73 402.755 410.735 402.755 405.806C402.755 400.878 398.762 396.883 393.836 396.883C388.91 396.883 384.916 400.878 384.916 405.806C384.916 410.735 388.91 414.73 393.836 414.73Z" fill="#4AE99C"/>
<path d="M394.902 420.833H392.384V438.465H394.902V420.833Z" fill="#3F3D56"/>
<path d="M441.811 435.185C441.811 435.185 442.681 416.961 460.502 419.079L441.811 435.185Z" fill="#3F3D56"/>
<path d="M436.776 417.843C441.702 417.843 445.695 413.848 445.695 408.919C445.695 403.991 441.702 399.996 436.776 399.996C431.85 399.996 427.856 403.991 427.856 408.919C427.856 413.848 431.85 417.843 436.776 417.843Z" fill="#4AE99C"/>
<path d="M437.842 423.946H435.324V441.578H437.842V423.946Z" fill="#3F3D56"/>
<path d="M175.458 420.243C175.458 420.243 176.328 402.019 194.149 404.137L175.458 420.243Z" fill="#3F3D56"/>
<path d="M170.423 402.901C175.349 402.901 179.342 398.905 179.342 393.977C179.342 389.049 175.349 385.054 170.423 385.054C165.497 385.054 161.504 389.049 161.504 393.977C161.504 398.905 165.497 402.901 170.423 402.901Z" fill="#4AE99C"/>
<path d="M171.489 409.004H168.972V426.636H171.489V409.004Z" fill="#3F3D56"/>
<path d="M42.9044 423.356C42.9044 423.356 43.7737 405.132 61.595 407.25L42.9044 423.356Z" fill="#3F3D56"/>
<path d="M37.8689 406.014C42.795 406.014 46.7883 402.018 46.7883 397.09C46.7883 392.162 42.795 388.167 37.8689 388.167C32.9428 388.167 28.9494 392.162 28.9494 397.09C28.9494 402.018 32.9428 406.014 37.8689 406.014Z" fill="#4AE99C"/>
<path d="M38.9353 412.117H36.4175V429.748H38.9353V412.117Z" fill="#3F3D56"/>
<path d="M258.559 391.689C312.229 391.689 355.738 348.161 355.738 294.468C355.738 240.774 312.229 197.247 258.559 197.247C204.889 197.247 161.381 240.774 161.381 294.468C161.381 348.161 204.889 391.689 258.559 391.689Z" fill="#3F3D56"/>
<path d="M197.379 302.272C199.793 299.382 202.811 297.056 206.222 295.461C209.632 293.865 213.351 293.038 217.115 293.038C220.88 293.038 224.599 293.865 228.009 295.461C231.42 297.056 234.438 299.382 236.852 302.272C240.981 298.328 243.836 293.237 245.047 287.655C246.258 282.073 245.77 276.256 243.647 270.954C241.523 265.652 237.861 261.107 233.132 257.906C228.404 254.706 222.825 252.995 217.115 252.995C211.406 252.995 205.827 254.706 201.099 257.906C196.37 261.107 192.708 265.652 190.584 270.954C188.46 276.256 187.973 282.073 189.184 287.655C190.395 293.237 193.25 298.328 197.379 302.272Z" fill="white"/>
<path d="M274.551 302.272C276.964 299.382 279.983 297.056 283.393 295.461C286.803 293.865 290.522 293.038 294.287 293.038C298.051 293.038 301.77 293.865 305.181 295.461C308.591 297.056 311.609 299.382 314.023 302.272C318.153 298.328 321.007 293.237 322.218 287.655C323.429 282.073 322.942 276.256 320.818 270.954C318.694 265.652 315.032 261.107 310.304 257.906C305.575 254.706 299.996 252.995 294.287 252.995C288.577 252.995 282.999 254.706 278.27 257.906C273.541 261.107 269.879 265.652 267.755 270.954C265.632 276.256 265.144 282.073 266.355 287.655C267.566 293.237 270.421 298.328 274.551 302.272Z" fill="white"/>
<path d="M207.365 281.689C212.795 281.689 217.197 277.285 217.197 271.852C217.197 266.42 212.795 262.016 207.365 262.016C201.935 262.016 197.533 266.42 197.533 271.852C197.533 277.285 201.935 281.689 207.365 281.689Z" fill="#3F3D56"/>
<path d="M284.534 281.689C289.964 281.689 294.366 277.285 294.366 271.852C294.366 266.42 289.964 262.016 284.534 262.016C279.104 262.016 274.702 266.42 274.702 271.852C274.702 277.285 279.104 281.689 284.534 281.689Z" fill="#3F3D56"/>
<path d="M188.533 330.211C194.848 330.211 199.966 325.09 199.966 318.773C199.966 312.456 194.848 307.335 188.533 307.335C182.219 307.335 177.101 312.456 177.101 318.773C177.101 325.09 182.219 330.211 188.533 330.211Z" fill="#FF6584"/>
<path d="M320.01 330.211C326.325 330.211 331.443 325.09 331.443 318.773C331.443 312.456 326.325 307.335 320.01 307.335C313.696 307.335 308.578 312.456 308.578 318.773C308.578 325.09 313.696 330.211 320.01 330.211Z" fill="#FF6584"/>
<path d="M254.272 295.897L245.697 333.07L259.988 318.773L254.272 295.897Z" fill="#FF6584"/>
<path d="M298.33 438.869L288.595 430.695L288.822 438.869H285.799L285.557 430.226L272.413 438.869H266.911L285.459 426.673L284.74 401.062L284.204 381.72L287.22 381.637L287.764 401.062L288.482 426.65L303.031 438.869H298.33Z" fill="#3F3D56"/>
<path d="M252.596 438.869L242.861 430.695L243.088 438.869H240.072L239.83 430.226L226.686 438.869H221.184L239.724 426.673L239.006 401.062L238.47 381.72L241.493 381.637L242.037 401.062L242.747 426.65L257.297 438.869H252.596Z" fill="#3F3D56"/>
<path d="M259.988 190.099C257.322 190.099 254.97 192.171 253.397 195.354C252.011 190.568 249.098 187.239 245.697 187.239C245.466 187.262 245.237 187.301 245.011 187.355C243.704 182.245 240.665 178.661 237.123 178.661C232.387 178.661 228.548 185.062 228.548 192.958C228.548 200.854 232.387 207.255 237.123 207.255C237.354 207.232 237.583 207.194 237.809 207.14C239.117 212.25 242.155 215.834 245.697 215.834C248.364 215.834 250.716 213.761 252.289 210.579C253.675 215.365 256.587 218.693 259.988 218.693C264.724 218.693 268.563 212.292 268.563 204.396C268.563 196.5 264.724 190.099 259.988 190.099Z" fill="#3F3D56"/>
<path d="M167.345 331.31C163.591 331.31 159.874 330.571 156.407 329.134C152.939 327.697 149.788 325.59 147.134 322.935C144.48 320.28 142.375 317.128 140.938 313.659C139.502 310.189 138.763 306.471 138.763 302.716V288.419C138.763 280.835 141.774 273.562 147.134 268.2C152.494 262.837 159.764 259.824 167.345 259.824V331.31Z" fill="#4AE99C"/>
<path d="M349.774 259.824C353.527 259.824 357.244 260.564 360.712 262.001C364.179 263.438 367.33 265.544 369.984 268.199C372.638 270.855 374.744 274.007 376.18 277.476C377.616 280.945 378.356 284.664 378.356 288.419V302.716C378.356 306.471 377.616 310.189 376.18 313.658C374.744 317.128 372.638 320.28 369.984 322.935C367.33 325.59 364.179 327.697 360.712 329.134C357.244 330.571 353.527 331.31 349.774 331.31V259.824H349.774Z" fill="#4AE99C"/>
<path d="M364.751 290.665H360.216C360.216 233.128 313.427 186.318 255.914 186.318C198.402 186.318 151.612 233.128 151.612 290.665H147.077C147.077 230.626 195.901 181.781 255.914 181.781C315.927 181.781 364.751 230.626 364.751 290.665Z" fill="#4AE99C"/>
<path d="M100.288 203.224L100.289 203.223L98.1585 202.335L89.1692 198.533L85.9471 197.171L85.6998 197.795L81.3714 208.728L93.5528 213.887L93.6167 213.944L92.7959 215.881C92.6835 216.058 92.5876 216.245 92.5095 216.44C91.9345 217.892 93.0205 219.337 94.0472 219.744C95.0739 220.151 96.3724 219.303 96.9474 217.85C97.5146 216.418 96.9603 214.598 95.9597 214.158L95.9606 214.156L93.8301 213.268L86.5419 210.434L90.7063 199.915L90.089 199.67L85.9232 210.193L85.022 209.843L89.2041 199.279L89.3143 199.326L97.8812 202.953L97.9451 203.011L97.1243 204.947C97.0119 205.124 96.916 205.312 96.8379 205.506C96.2628 206.959 97.3489 208.404 98.3755 208.81C99.4022 209.217 100.701 208.369 101.276 206.917C101.843 205.484 101.289 203.664 100.288 203.224Z" fill="#3F3D56"/>
<path d="M142.45 230.066C138.028 227.537 138.913 221.986 138.913 221.986C138.802 218.38 135.824 218.891 135.824 218.891L134.74 219.138C134.237 218.904 133.682 218.802 133.129 218.84L131.48 219.118C135.234 220 134.926 223.142 134.926 223.142L135.452 226.815L125.615 222.845L126.744 220.181C126.9 219.935 127.034 219.675 127.142 219.405C127.941 217.388 126.432 215.381 125.006 214.816C123.58 214.251 121.777 215.428 120.978 217.446C120.191 219.436 120.961 221.964 122.35 222.574L122.349 222.577L125.308 223.81L125.33 223.74L142.45 230.066ZM137.455 223.611L137.77 227.128C136.657 225.564 136.133 223.656 136.294 221.743C136.268 221.062 136.038 220.405 135.635 219.857C136.255 220.254 136.753 220.815 137.074 221.477C137.395 222.14 137.527 222.879 137.455 223.611V223.611Z" fill="#3F3D56"/>
<path d="M67.4165 178.065L67.4177 178.063L64.4587 176.83L52.0915 172.02L55.2129 169.242C55.8235 168.428 56.7253 167.881 57.7295 167.716C58.7337 167.552 59.7627 167.782 60.6011 168.359L59.6325 166.919C59.6325 166.919 57.8116 164.507 55.2626 167.059C55.2626 167.059 52.1087 171.71 47.1548 170.524L64.0735 177.688L64.1623 177.769L63.0222 180.458C62.8661 180.704 62.733 180.964 62.6244 181.234C61.8258 183.252 63.3342 185.258 64.7602 185.824C66.1861 186.389 67.9895 185.211 68.7883 183.194C69.576 181.204 68.8061 178.676 67.4165 178.065Z" fill="#3F3D56"/>
<path d="M112.693 162.324L111.553 165.013C111.397 165.259 111.263 165.519 111.155 165.789C110.356 167.807 111.865 169.813 113.291 170.378C114.716 170.943 116.52 169.766 117.319 167.748C118.106 165.759 117.337 163.231 115.947 162.62L115.948 162.617L112.989 161.385L102.867 157.448L108.65 142.838L107.793 142.498L102.007 157.114L100.755 156.627L106.564 141.955L106.717 142.019L118.616 147.058L118.704 147.138L117.564 149.827C117.408 150.073 117.275 150.333 117.167 150.604C116.368 152.621 117.876 154.628 119.302 155.193C120.728 155.758 122.532 154.58 123.33 152.563C124.118 150.573 123.348 148.045 121.959 147.434L121.96 147.432L119.001 146.199L106.908 141.085L106.908 141.085L106.516 140.919L102.04 139.026L95.6852 155.079L112.604 162.243L112.693 162.324Z" fill="#3F3D56"/>
<path d="M59.0769 80.1097L59.0789 80.1056L53.9851 77.9834L32.6959 69.7039L38.0691 64.9213C38.0691 64.9213 41.6432 59.96 47.3446 63.4012L45.6773 60.9219C45.6773 60.9219 42.5425 56.77 38.1546 61.1628C38.1546 61.1628 32.7254 69.1701 24.1975 67.129L53.3221 79.4613L53.475 79.5999L51.5124 84.2295C51.2437 84.653 51.0145 85.1003 50.8276 85.5657C49.4528 89.0386 52.0494 92.493 54.5041 93.4656C56.9588 94.4383 60.0633 92.4114 61.4382 88.9385C62.7942 85.513 61.4689 81.1612 59.0769 80.1097Z" fill="#3F3D56"/>
<path d="M74.7093 149.658C64.1367 143.61 66.2524 130.34 66.2524 130.34C65.9864 121.718 58.8666 122.939 58.8666 122.939L56.2753 123.53C55.0716 122.971 53.7462 122.726 52.4223 122.817L48.4805 123.481C57.456 125.591 56.7186 133.102 56.7186 133.102L57.9761 141.885L34.4578 132.394L37.1581 126.024C37.5313 125.436 37.8497 124.815 38.1092 124.168C40.0188 119.345 36.4123 114.547 33.0029 113.196C29.5935 111.845 25.2817 114.66 23.3722 119.484C21.4886 124.241 23.3294 130.286 26.6517 131.746L26.6489 131.752L33.7237 134.699L33.7764 134.533L74.7093 149.658ZM62.7663 134.226L63.5231 142.662C59.0826 136.764 59.9902 129.758 59.9902 129.758C59.9276 128.131 59.379 126.56 58.4151 125.248C63.516 128.302 62.7663 134.226 62.7663 134.226H62.7663Z" fill="#3F3D56"/>
</g>
<defs>
<clipPath id="clip0_20_774">
<rect width="519" height="452" fill="white"/>
</clipPath>
</defs>
</svg>
