<svg width="44" height="44" viewBox="0 0 44 44" fill="none" xmlns="http://www.w3.org/2000/svg">
<path d="M20.1666 11C22.6966 11 24.9883 12.0267 26.6566 13.6767L23.5583 16.775C22.99 17.3434 23.3933 18.3334 24.2183 18.3334H32.0833C32.5966 18.3334 33 17.93 33 17.4167V9.55171C33 8.72671 32.01 8.32337 31.4416 8.91004L29.2416 11.11C26.9133 8.76337 23.705 7.33337 20.1666 7.33337C14.5933 7.33337 9.86331 10.89 8.10331 15.84C7.66331 17.05 8.52498 18.3334 9.80831 18.3334C10.5783 18.3334 11.2566 17.8567 11.5133 17.1234C12.76 13.5667 16.17 11 20.1666 11ZM30.5066 27.7567C31.24 26.7667 31.8266 25.6484 32.2483 24.4567C32.67 23.265 31.79 22 30.525 22C29.755 22 29.0766 22.4767 28.82 23.21C27.5733 26.7667 24.1633 29.3334 20.1666 29.3334C17.6366 29.3334 15.345 28.3067 13.6766 26.6567L16.775 23.5584C17.3433 22.99 16.94 22 16.115 22H8.24998C7.73665 22 7.33331 22.4034 7.33331 22.9167V30.7817C7.33331 31.6067 8.32331 32.01 8.89165 31.4234L11.0916 29.2234C13.42 31.57 16.6283 33 20.1666 33C23.0083 33 25.63 32.065 27.7566 30.5067L35.2916 38.0417C36.0433 38.7934 37.2716 38.7934 38.0233 38.0417C38.775 37.29 38.775 36.0617 38.0233 35.31L30.5066 27.7567Z" fill="white"/>
</svg>
