<svg width="373" height="732" viewBox="0 0 373 732" fill="none" xmlns="http://www.w3.org/2000/svg">
<path d="M27 77H347V613H27V77Z" fill="white"/>
<rect x="14.7084" y="9.20864" width="342.513" height="713.495" rx="46.5" transform="rotate(-0.148372 14.7084 9.20864)" stroke="white" stroke-width="3"/>
<rect x="7.89952" y="2.43483" width="356.096" height="727.078" rx="50.5" transform="rotate(-0.148372 7.89952 2.43483)" stroke="white" stroke-width="3"/>
<path d="M6.78481 151.198L6.78092 149.698C4.07711 149.705 1.89091 151.903 1.89791 154.607L1.96826 181.772C1.97526 184.476 4.17281 186.662 6.87663 186.655L6.87274 185.155L8.37274 185.151L8.2848 151.194L6.78481 151.198Z" stroke="white" stroke-width="3"/>
<path d="M6.90792 198.738L6.90403 197.238C4.20022 197.245 2.01402 199.443 2.02102 202.147L2.09136 229.312C2.09837 232.016 4.29592 234.202 6.99974 234.195L6.99585 232.695L8.49585 232.691L8.40791 198.734L6.90792 198.738Z" stroke="white" stroke-width="3"/>
<path d="M7.03102 246.278L7.02714 244.778C4.32332 244.785 2.13712 246.983 2.14412 249.686L2.21447 276.852C2.22147 279.556 4.41903 281.742 7.12284 281.735L7.11896 280.235L8.61895 280.231L8.53102 246.274L7.03102 246.278Z" stroke="white" stroke-width="3"/>
<path d="M365.977 187.621L365.973 186.121C368.677 186.114 370.874 188.3 370.881 191.004L371.004 238.544C371.011 241.248 368.825 243.445 366.121 243.452L366.117 241.952L364.617 241.956L364.477 187.625L365.977 187.621Z" stroke="white" stroke-width="3"/>
<mask id="path-8-inside-1_106_985" fill="white">
<path fill-rule="evenodd" clip-rule="evenodd" d="M66.8224 21.1565C44.7311 21.2138 26.8689 39.1687 26.9261 61.26L28.504 670.587C28.5612 692.678 46.5162 710.54 68.6075 710.483L306.954 709.866C329.046 709.809 346.908 691.854 346.851 669.762L345.273 60.4356C345.216 38.3443 327.261 20.4821 305.169 20.5393L66.8224 21.1565ZM265.803 23.807L265.795 20.6413L106.621 21.0535L106.63 24.2192C106.664 37.474 117.437 48.1913 130.692 48.157L241.865 47.8691C255.12 47.8347 265.837 37.0618 265.803 23.807Z"/>
</mask>
<path d="M26.9261 61.26L23.9261 61.2678L26.9261 61.26ZM265.795 20.6413L268.795 20.6336L268.787 17.6336L265.787 17.6413L265.795 20.6413ZM265.803 23.807L262.803 23.8148L265.803 23.807ZM106.621 21.0535L106.614 18.0535L103.614 18.0613L103.621 21.0613L106.621 21.0535ZM130.692 48.157L130.684 45.157L130.692 48.157ZM241.865 47.8691L241.873 50.8691L241.865 47.8691ZM29.9261 61.2523C29.8732 40.8178 46.3957 24.2095 66.8302 24.1565L66.8146 18.1566C43.0664 18.2181 23.8646 37.5196 23.9261 61.2678L29.9261 61.2523ZM31.504 670.579L29.9261 61.2523L23.9261 61.2678L25.504 670.595L31.504 670.579ZM68.5997 707.483C48.1652 707.536 31.5569 691.014 31.504 670.579L25.504 670.595C25.5655 694.343 44.8671 713.545 68.6152 713.483L68.5997 707.483ZM306.947 706.866L68.5997 707.483L68.6152 713.483L306.962 712.866L306.947 706.866ZM343.851 669.77C343.904 690.205 327.381 706.813 306.947 706.866L306.962 712.866C330.71 712.805 349.912 693.503 349.851 669.755L343.851 669.77ZM342.273 60.4434L343.851 669.77L349.851 669.755L348.273 60.4278L342.273 60.4434ZM305.177 23.5393C325.612 23.4864 342.22 40.0089 342.273 60.4434L348.273 60.4278C348.211 36.6797 328.91 17.4778 305.162 17.5393L305.177 23.5393ZM66.8302 24.1565L305.177 23.5393L305.162 17.5393L66.8146 18.1566L66.8302 24.1565ZM262.795 20.6491L262.803 23.8148L268.803 23.7992L268.795 20.6336L262.795 20.6491ZM106.629 24.0535L265.802 23.6413L265.787 17.6413L106.614 18.0535L106.629 24.0535ZM109.63 24.2114L109.621 21.0458L103.621 21.0613L103.63 24.227L109.63 24.2114ZM130.684 45.157C119.086 45.187 109.66 35.8094 109.63 24.2114L103.63 24.227C103.668 39.1386 115.788 51.1956 130.699 51.157L130.684 45.157ZM241.857 44.8691L130.684 45.157L130.699 51.157L241.873 50.8691L241.857 44.8691ZM262.803 23.8148C262.833 35.4127 253.455 44.839 241.857 44.8691L241.873 50.8691C256.785 50.8304 268.842 38.7109 268.803 23.7992L262.803 23.8148Z" fill="white" mask="url(#path-8-inside-1_106_985)"/>
<rect x="160.776" y="29.2047" width="51.3314" height="3.79142" rx="1.89571" transform="rotate(-0.148372 160.776 29.2047)" stroke="white" stroke-width="3"/>
<path d="M232.486 30.9147C232.489 31.9617 231.643 32.8126 230.596 32.8153C229.549 32.818 228.698 31.9715 228.695 30.9245C228.692 29.8776 229.539 29.0266 230.586 29.0239C231.633 29.0212 232.484 29.8677 232.486 30.9147Z" stroke="white" stroke-width="3"/>
<path d="M173.2 242.52C171.413 242.52 169.813 242.213 168.4 241.6C167.013 240.96 165.827 240.08 164.84 238.96C163.88 237.813 163.147 236.467 162.64 234.92C162.133 233.347 161.88 231.64 161.88 229.8V216.28C161.88 215.907 161.92 215.587 162 215.32C162.107 215.053 162.28 214.853 162.52 214.72C162.787 214.56 163.187 214.48 163.72 214.48C164.253 214.48 164.653 214.56 164.92 214.72C165.187 214.853 165.36 215.053 165.44 215.32C165.52 215.587 165.56 215.92 165.56 216.32V229.8C165.56 231.587 165.853 233.16 166.44 234.52C167.027 235.88 167.893 236.96 169.04 237.76C170.187 238.533 171.613 238.92 173.32 238.92C174.92 238.92 176.293 238.547 177.44 237.8C178.587 237.053 179.467 236 180.08 234.64C180.693 233.28 181 231.653 181 229.76V216.04C181 215.72 181.04 215.453 181.12 215.24C181.227 215 181.413 214.813 181.68 214.68C181.947 214.547 182.347 214.48 182.88 214.48C183.387 214.48 183.76 214.56 184 214.72C184.267 214.853 184.44 215.053 184.52 215.32C184.6 215.587 184.64 215.92 184.64 216.32V229.88C184.64 231.747 184.387 233.453 183.88 235C183.373 236.52 182.627 237.853 181.64 239C180.68 240.12 179.48 240.987 178.04 241.6C176.627 242.213 175.013 242.52 173.2 242.52ZM191.836 242.4C191.302 242.4 190.902 242.32 190.636 242.16C190.396 242.027 190.236 241.827 190.156 241.56C190.076 241.267 190.036 240.933 190.036 240.56V216.28C190.036 215.907 190.076 215.587 190.156 215.32C190.262 215.053 190.436 214.853 190.676 214.72C190.942 214.56 191.342 214.48 191.876 214.48C192.409 214.48 192.796 214.56 193.036 214.72C193.302 214.853 193.462 215.053 193.516 215.32C193.596 215.587 193.636 215.92 193.636 216.32V240.6C193.636 240.973 193.596 241.293 193.516 241.56C193.436 241.827 193.262 242.027 192.996 242.16C192.756 242.32 192.369 242.4 191.836 242.4Z" fill="black"/>
</svg>
