<svg width="684" height="353" viewBox="0 0 684 353" fill="none" xmlns="http://www.w3.org/2000/svg">
<g clip-path="url(#clip0_9_89)">
<path d="M416.257 386C549.916 386 658.267 366.851 658.267 343.23C658.267 319.609 549.916 300.46 416.257 300.46C282.599 300.46 174.248 319.609 174.248 343.23C174.248 366.851 282.599 386 416.257 386Z" fill="#F0F0F0"/>
<path d="M641.276 261.391H187.714V184.452H194.711V127.185C194.726 113.692 200.097 100.757 209.645 91.216C219.194 81.6753 232.14 76.3087 245.643 76.2935H584.17C597.673 76.3087 610.619 81.6754 620.167 91.216C629.716 100.757 635.087 113.692 635.102 127.185V184.452H641.276V261.391Z" fill="#E4E4E4"/>
<path d="M653.565 346.073H630.987V345.662C630.964 325.709 623.021 306.58 608.901 292.471C594.781 278.362 575.636 270.426 555.667 270.403H273.323C253.354 270.426 234.209 278.362 220.089 292.471C205.968 306.58 198.026 325.709 198.003 345.662V346.073H175.425C170.28 346.067 165.349 344.023 161.711 340.388C158.074 336.754 156.028 331.826 156.022 326.686V200.917C149.465 197.216 144.133 177.113 147.597 161.059C149.77 150.985 156.046 138.817 173.597 138.064C190.682 137.33 203.364 153.357 204.496 168.785C205.11 176.903 202.724 184.965 197.789 191.443H198.003V209.385C235.053 197.522 272.154 191.485 308.286 191.443C345.259 191.479 381.975 197.585 416.967 209.516C489.722 186.003 561.723 185.546 630.987 208.162V191.443H631.201C626.266 184.965 623.88 176.903 624.494 168.785C625.736 151.863 639.589 138.082 655.375 138.064H655.427C674.042 138.064 680.626 149.261 682.872 158.659C686.846 175.292 679.55 197.185 672.968 200.916V326.686C672.962 331.826 670.916 336.754 667.279 340.388C663.641 344.023 658.709 346.067 653.565 346.073Z" fill="#CACACA"/>
<path d="M140.498 225.612H2.2069V237.539H4.67639V345.697H18.6701V237.539H124.858V345.697H138.852V237.539H140.498V225.612Z" fill="#F0F0F0"/>
<path d="M494.548 216.375C494.548 216.375 501.337 205.247 510.053 211.827C518.769 218.407 534.909 229.509 534.909 229.509C534.909 229.509 538.215 236.61 529.659 233.943C521.102 231.275 493.17 226.983 493.17 226.983L494.548 216.375Z" fill="#9E616A"/>
<path d="M461.199 230.207C453.894 230.207 447.207 229.508 441.894 227.855C435.579 225.89 431.614 222.712 430.107 218.404C429.399 216.574 429.188 214.59 429.495 212.653C429.801 210.715 430.615 208.893 431.853 207.371C441.195 195.208 473.615 191.777 477.965 191.372L486.79 174.674C487.355 170.691 484.683 167.675 489.299 167.599L543.899 166.858C548.432 166.763 547.146 169.568 547.922 173.452L556.241 188.291L520.438 203.389L525.851 216.568L525.498 216.773C515.02 222.846 484.886 230.206 461.199 230.207Z" fill="#2F2E41"/>
<path d="M551.284 188.924C551.284 188.924 601.284 183.207 598.023 206.076C594.763 228.945 556.719 245.145 499.11 206.076L505.632 194.641C505.632 194.641 527.099 193.574 540.143 187.857L551.284 188.924Z" fill="#2F2E41"/>
<path d="M546.663 73.1867L528.688 66.469L493.846 66.0198L478.849 73.1867L483.061 97.3757C483.061 97.3757 474.557 111.765 483.92 126.155L486.022 177.433C486.022 177.433 519.613 196.896 547.968 173.523L541.559 125.848C541.559 125.848 552.278 103.728 543.97 95.5105L546.663 73.1867Z" fill="#3F3D56"/>
<path d="M537.689 210.819C537.689 210.819 532.09 199.047 522.739 204.69C513.389 210.333 496.184 219.706 496.184 219.706C496.184 219.706 492.16 226.427 500.947 224.659C509.734 222.891 537.961 221.512 537.961 221.512L537.689 210.819Z" fill="#9E616A"/>
<path d="M528.919 171.927H493.85C492.967 171.927 492.12 171.576 491.496 170.953C490.872 170.329 490.522 169.483 490.522 168.601L488.976 122.752C488.976 121.87 489.327 121.024 489.951 120.4C490.575 119.777 491.422 119.426 492.304 119.426H530.464C531.347 119.426 532.193 119.777 532.817 120.4C533.442 121.024 533.792 121.87 533.792 122.752L532.247 168.601C532.247 169.483 531.896 170.329 531.272 170.953C530.648 171.576 529.801 171.927 528.919 171.927Z" fill="white"/>
<path d="M511.384 136.412C513.091 136.412 514.475 135.029 514.475 133.323C514.475 131.618 513.091 130.235 511.384 130.235C509.677 130.235 508.293 131.618 508.293 133.323C508.293 135.029 509.677 136.412 511.384 136.412Z" fill="#4AE99C"/>
<path d="M512.349 153.677C511.809 152.578 511.035 151.611 510.081 150.843C509.127 150.076 508.016 149.527 506.826 149.235C505.636 148.942 504.397 148.915 503.196 149.153C501.994 149.391 500.86 149.89 499.872 150.614L483.496 140.698L475.039 149.172L498.361 162.85C499.688 164.427 501.548 165.464 503.589 165.763C505.629 166.061 507.709 165.602 509.433 164.471C511.157 163.34 512.406 161.617 512.944 159.628C513.481 157.638 513.27 155.521 512.349 153.677H512.349Z" fill="#9E616A"/>
<path d="M511.561 149.943C512.295 148.963 513.235 148.156 514.315 147.578C515.395 147 516.588 146.666 517.812 146.599C519.035 146.532 520.258 146.733 521.394 147.19C522.531 147.646 523.554 148.346 524.39 149.24L542.319 142.523L549.062 152.414L523.609 161.544C522.013 162.849 519.993 163.524 517.932 163.44C515.872 163.356 513.913 162.52 512.428 161.09C510.943 159.66 510.035 157.736 509.875 155.681C509.715 153.627 510.315 151.585 511.561 149.943H511.561Z" fill="#9E616A"/>
<path d="M544.727 72.9862C544.727 72.9862 556.367 70.66 559.471 80.7404C562.575 90.8207 578.096 128.04 573.44 133.468C568.784 138.896 551.711 153.629 546.279 156.73C540.847 159.832 538.518 159.832 538.518 159.832L531.534 162.934L529.206 145.099L537.171 140.385L549.383 130.367L542.399 109.431L544.727 72.9862Z" fill="#3F3D56"/>
<path d="M480.2 73.316C480.2 73.316 468.559 70.9897 465.455 81.0701C462.351 91.1504 446.83 128.37 451.486 133.798C456.143 139.226 473.215 153.959 478.647 157.06C484.08 160.162 486.408 160.162 486.408 160.162L493.392 163.263L495.72 145.429L487.755 140.715L475.543 130.696L486.796 103.169L480.2 73.316Z" fill="#3F3D56"/>
<path d="M512.64 59.2972C527.455 59.2972 539.465 47.2969 539.465 32.4939C539.465 17.6908 527.455 5.69055 512.64 5.69055C497.825 5.69055 485.815 17.6908 485.815 32.4939C485.815 47.2969 497.825 59.2972 512.64 59.2972Z" fill="#9E616A"/>
<path d="M539.324 12.8883C537.531 8.98529 534.334 5.89921 530.368 4.2433C526.438 2.65916 522.045 2.663 518.117 4.254C514.57 2.01524 510.63 0.240413 506.48 0.0205917C502.331 -0.199229 497.943 1.33906 495.386 4.72516C494.815 5.619 494.166 6.46094 493.448 7.24127C491.392 9.14335 488.268 8.869 485.536 8.48006C486.761 9.52952 487.987 10.579 489.213 11.6284C487.73 12.0156 486.246 12.4029 484.763 12.7901C486.494 13.8392 488.225 14.8883 489.956 15.9374C484.93 18.9515 482.646 25.53 483.249 31.5047C483.82 37.1614 486.553 42.334 489.821 46.9315C491.124 44.1833 490.843 40.8949 490.822 37.7996C490.799 34.5291 491.378 30.8153 494.001 28.9875C495.77 27.7546 498.045 27.6995 500.179 27.7112C510.941 27.7702 521.69 28.4407 532.376 29.7196C533.826 29.7823 535.239 30.192 536.498 30.9142C538.861 32.525 539.321 35.8491 539.559 38.7654C540.807 33.9502 541.418 28.9921 541.376 24.0181C541.343 20.211 540.905 16.3267 539.324 12.8883Z" fill="#2F2E41"/>
<path d="M327.649 268.249C327.649 268.249 332.376 279.423 341.301 274.556C350.226 269.688 366.606 261.672 366.606 261.672C366.606 261.672 370.622 255.586 362.379 256.873C354.136 258.159 327.831 258.294 327.831 258.294L327.649 268.249Z" fill="#FEB8B8"/>
<path d="M260.913 33.0915C262.624 34.7881 263.604 37.0859 263.643 39.4943C263.682 41.9028 262.778 44.2312 261.123 45.9825C260.78 46.3325 260.41 46.6536 260.014 46.9423L269.296 77.8582L253.501 72.9218L247.108 44.3204C246.029 42.5934 245.554 40.5575 245.758 38.5317C245.961 36.5059 246.832 34.6049 248.233 33.1266C249.056 32.2792 250.04 31.6049 251.127 31.1434C252.215 30.6818 253.384 30.4424 254.565 30.4391C255.747 30.4359 256.917 30.6688 258.007 31.1244C259.097 31.5799 260.085 32.2487 260.913 33.0915Z" fill="#FFB6B6"/>
<path d="M327.979 261.792L337.902 258.297L328.834 217.535L314.187 222.693L327.979 261.792Z" fill="#FEB8B8"/>
<path d="M364.499 251.218C364.499 251.218 373.172 259.707 379.529 251.778C385.886 243.849 397.907 230.142 397.907 230.142C397.907 230.142 399.263 222.98 392.154 227.342C385.045 231.705 360.826 241.963 360.826 241.963L364.499 251.218Z" fill="#FEB8B8"/>
<path d="M362.312 245.133L370.119 238.086L346.023 203.969L334.499 214.371L362.312 245.133Z" fill="#FEB8B8"/>
<path d="M266.141 64.7617L267.954 70.2667L276.1 94.9917C276.658 96.621 276.889 98.3443 276.78 100.063C276.67 101.781 276.223 103.462 275.464 105.007C274.704 106.553 273.647 107.934 272.353 109.071C271.059 110.209 269.554 111.08 267.922 111.636C264.906 112.621 261.63 112.454 258.729 111.168L212.885 90.3204C211.08 89.5243 209.468 88.3481 208.16 86.8724C206.852 85.3966 205.878 83.656 205.305 81.7696C204.732 79.8832 204.574 77.8954 204.841 75.9421C205.107 73.9889 205.793 72.1162 206.851 70.4521C208.634 67.6563 211.417 65.6444 214.632 64.8258C217.848 64.0072 221.254 64.4433 224.159 66.0455L255.939 84.0721L252.35 66.9754L266.141 64.7617Z" fill="#4AE99C"/>
<path d="M338.286 242.505L322.629 249.708L290.737 187.43C263.397 202.68 236.504 213.951 210.621 216.264C206.359 216.608 202.133 215.263 198.856 212.519C195.579 209.775 193.514 205.853 193.107 201.6C193.064 201.184 193.037 200.766 193.026 200.348C192.812 190.682 194.545 179.632 197.045 168.038L241.078 168.586L244.67 174.08L284.368 154.055C286.293 153.107 288.386 152.55 290.528 152.414C292.67 152.279 294.817 152.568 296.846 153.266C298.875 153.963 300.746 155.055 302.351 156.478C303.956 157.902 305.263 159.628 306.197 161.559C306.412 161.99 306.608 162.431 306.786 162.879L338.286 242.505Z" fill="#2F2E41"/>
<path d="M358.039 220.069L342.382 227.272L291.877 177.63C264.537 192.88 237.645 204.151 211.761 206.464C207.5 206.808 203.273 205.463 199.996 202.719C196.719 199.975 194.654 196.053 194.247 191.8C194.205 191.383 194.177 190.966 194.166 190.547C193.952 180.881 195.685 169.832 198.185 158.238L244.778 146.108L245.811 164.28L285.508 144.255C287.433 143.307 289.527 142.749 291.668 142.614C293.81 142.478 295.957 142.768 297.986 143.465C300.016 144.163 301.886 145.255 303.491 146.678C305.096 148.102 306.403 149.828 307.337 151.759C307.552 152.19 307.748 152.63 307.926 153.079L358.039 220.069Z" fill="#2F2E41"/>
<path d="M213.895 54.4907C224.867 50.6271 230.557 38.4099 226.604 27.2027C222.651 15.9955 210.553 10.0423 199.581 13.9058C188.609 17.7694 182.919 29.9866 186.872 41.1938C190.825 52.401 202.924 58.3542 213.895 54.4907Z" fill="#FFB6B6"/>
<path d="M241.201 59.6003C241.131 60.0317 241.231 60.4735 241.48 60.8327C241.729 61.1919 242.108 61.4404 242.537 61.5261C243.092 61.4047 258.413 65.0538 258.444 64.0072C258.621 63.8798 258.77 63.7183 258.884 63.5322C258.997 63.3462 259.072 63.1393 259.104 62.9239L265.941 18.2723C265.978 18.0275 265.962 17.7774 265.892 17.5396C265.822 17.3019 265.701 17.0824 265.537 16.8967C265.751 15.7329 250.037 17.0918 249.443 16.9744C249.07 16.9902 248.715 17.1351 248.437 17.3842C248.16 17.6334 247.978 17.9713 247.923 18.3398L241.201 59.6003Z" fill="#3F3D56"/>
<path d="M262.776 18.496C262.776 18.496 249.523 19.3503 249.676 19.1343C249.344 19.2362 248.52 18.997 248.481 19.5561L242.21 58.8125C241.694 59.8021 256.412 61.2161 256.642 61.5269C257.863 61.8035 262.767 19.4004 263.247 19.0227C263.264 18.9041 263.235 18.7833 263.165 18.6859C263.095 18.5885 262.99 18.5223 262.872 18.5014C262.84 18.4961 262.808 18.4943 262.776 18.496Z" fill="#4AE99C"/>
<path d="M228.963 61.7712C228.981 61.2555 228.931 60.7397 228.814 60.2372C228.482 58.7676 227.581 57.489 226.309 56.6801C225.037 55.8713 223.496 55.5979 222.023 55.9196L212.422 58.1357C211.698 58.3104 211.016 58.6263 210.415 59.0653C209.814 59.5044 209.306 60.0579 208.92 60.6939C208.534 61.33 208.277 62.0361 208.165 62.7716C208.053 63.5071 208.088 64.2574 208.268 64.9794C208.569 66.2656 209.3 67.4109 210.34 68.2266C205.788 70.4139 201.977 73.8851 199.377 78.2117C196.777 82.5384 195.501 87.531 195.708 92.5735C192.56 112.733 192.904 134.646 198.003 158.95L245.868 163.967L249.713 125.093L251.118 119.059C251.5 118.193 251.856 117.338 252.177 116.482C254.123 111.687 255.245 106.599 255.498 101.432C255.643 97.7407 255.191 94.0504 254.161 90.5028C250.862 79.156 241.706 69.8441 228.963 61.7712Z" fill="#4AE99C"/>
<path opacity="0.2" d="M255.498 101.432C255.245 106.599 254.122 111.687 252.177 116.482C251.856 117.338 251.5 118.193 251.117 119.059L249.713 125.093C235.068 120.496 213.633 89.639 213.633 89.639L225.808 82.4958L255.498 101.432Z" fill="black"/>
<path d="M244.756 45.7548C244.305 48.1222 244.795 50.5724 246.124 52.5839C247.452 54.5954 249.514 56.0095 251.87 56.5253C252.351 56.6226 252.839 56.6799 253.329 56.6968L263.136 87.4513L273.398 74.5124L262.512 47.2911C262.424 45.2552 261.665 43.3055 260.352 41.7462C259.04 40.1869 257.247 39.1057 255.255 38.6713C254.098 38.4309 252.906 38.4244 251.747 38.6523C250.588 38.8802 249.487 39.3379 248.509 39.9982C247.53 40.6585 246.694 41.5082 246.049 42.4969C245.405 43.4856 244.965 44.5934 244.756 45.7548Z" fill="#FFB6B6"/>
<path d="M257.926 76.3735L273.155 73.3272L283.116 103.555C283.834 105.709 283.99 108.01 283.568 110.241C283.146 112.471 282.16 114.557 280.704 116.3C278.921 118.415 276.497 119.894 273.8 120.513C271.102 121.132 268.275 120.858 265.747 119.733L219.901 98.8827C216.687 97.4475 214.145 94.8362 212.799 91.5857C211.452 88.3353 211.403 84.6928 212.662 81.4075C213.283 79.7741 214.225 78.2818 215.433 77.0192C216.642 75.7566 218.092 74.7495 219.698 74.0576C221.303 73.3657 223.031 73.0031 224.78 72.9914C226.528 72.9797 228.261 73.319 229.876 73.9893C230.321 74.1724 230.756 74.3794 231.178 74.6093L262.953 92.6358L257.926 76.3735Z" fill="#4AE99C"/>
<path d="M215.905 5.11903C210.78 4.11843 205.611 5.93218 200.736 7.71894C197.204 9.01351 193.671 10.3081 190.139 11.6026C185.852 13.174 181.349 14.897 178.493 18.4936C175.637 22.0902 175.287 28.1845 178.993 30.9693C169.533 27.112 158.388 29.9013 150.47 36.2355C146.486 39.2809 143.413 43.3583 141.585 48.0253C139.725 53.1438 139.83 58.8537 140.959 64.2292C142.088 69.6047 144.193 74.7223 146.286 79.8031C147.602 82.9979 149.265 86.5377 152.483 87.6706C155.451 88.7154 158.741 87.2413 160.994 85.0667C164.921 81.2745 166.575 75.6433 167.365 70.1687C168.155 64.6938 168.247 59.0737 169.765 53.7696C171.282 48.4653 174.577 43.3155 179.687 41.4474C177.981 47.7335 179.937 55.3082 185.326 58.9638C189.202 61.5925 194.228 61.8957 198.725 60.8389C203.222 59.7822 207.319 57.5026 211.352 55.2482C214.082 53.7217 217.177 51.5946 217.135 48.4079C217.094 45.2832 214.076 43.1757 212.216 40.6621C208.626 35.8107 209.761 28.1015 214.574 24.6434L213.985 24.3664C218.651 23.4348 223.767 20.9735 224.759 16.2465C225.842 11.0865 221.029 6.11966 215.905 5.11903Z" fill="#CECF94"/>
<path d="M223.419 222.323C218.827 222.32 214.277 221.452 210.007 219.765C205.726 218.116 201.814 215.635 198.498 212.467C195.181 209.299 192.526 205.506 190.686 201.306L164.285 140.681C156.694 123.251 165.201 103.106 183.249 95.774L183.697 95.5919L237.631 219.44L237.183 219.622C232.813 221.402 228.138 222.32 223.419 222.323Z" fill="#3F3D56"/>
<path d="M608.704 216.388C604.717 216.387 600.77 215.588 597.096 214.039L596.716 213.88L642.353 105.462L642.733 105.621C650.072 108.716 655.883 114.592 658.892 121.962C661.9 129.332 661.86 137.594 658.78 144.934L636.44 198.006C634.139 203.456 630.28 208.107 625.347 211.377C620.413 214.646 614.624 216.389 608.704 216.388Z" fill="#3F3D56"/>
<path d="M0.0138426 182.659C0.0395271 182.488 0.100884 182.324 0.193947 182.179C0.28701 182.033 0.409701 181.908 0.554043 181.813L43.9947 153.158C43.3401 152.885 42.7927 152.406 42.4357 151.793H42.4353C42.0013 151.037 41.8846 150.14 42.1104 149.298C42.3363 148.456 42.8864 147.737 43.6407 147.299L47.205 145.243C47.9619 144.809 48.8597 144.693 49.7024 144.918C50.5452 145.144 51.2643 145.693 51.7027 146.447C51.9396 146.861 52.0821 147.323 52.1199 147.798L83.4772 127.114C84.5304 124.565 86.127 122.277 88.1558 120.408C90.1845 118.54 92.5967 117.135 95.2242 116.293V107.173H106.748V116.293C110.572 117.515 113.908 119.919 116.275 123.158C118.643 126.397 119.919 130.304 119.919 134.315V136.783H108.395C108.395 138.746 107.614 140.629 106.225 142.017C104.836 143.405 102.951 144.185 100.986 144.185C99.0215 144.185 97.1371 143.405 95.7477 142.017C94.3584 140.629 93.5778 138.746 93.5778 136.783H82.0536V134.315C82.0547 133.132 82.1662 131.952 82.3868 130.79L3.05933 183.117L36.0115 223.149C36.2675 223.148 36.522 223.145 36.7796 223.145C39.4087 223.145 41.9562 223.207 44.3834 223.314C44.237 222.908 44.1731 222.476 44.1953 222.045C44.2433 221.174 44.634 220.358 45.2822 219.774C45.9304 219.191 46.7834 218.887 47.6548 218.93L51.765 219.144C52.6362 219.192 53.453 219.583 54.037 220.23C54.621 220.878 54.9248 221.73 54.882 222.601C54.8516 223.115 54.6986 223.615 54.4358 224.058C61.7036 224.83 66.4135 225.894 66.4135 226.435C66.4135 227.322 53.767 226.478 37.9384 226.437C37.8658 226.643 37.7398 226.826 37.5732 226.966C37.4067 227.107 37.2056 227.202 36.9907 227.239C36.7757 227.277 36.5546 227.257 36.3499 227.181C36.1453 227.105 35.9646 226.976 35.8262 226.808L35.5212 226.437C19.7392 226.481 7.1458 227.32 7.1458 226.435C7.1458 225.601 18.3425 223.525 32.8499 223.192L0.28074 183.626C0.170932 183.493 0.0904303 183.338 0.0444525 183.171C-0.00152536 183.004 -0.0119496 182.83 0.0138426 182.659Z" fill="#F0F0F0"/>
<path d="M111.825 223.433V167.186C111.825 165.516 114.41 164.158 117.587 164.158C120.765 164.158 123.349 165.516 123.349 167.186V223.433C123.349 225.103 120.765 226.462 117.587 226.462C114.41 226.462 111.825 225.103 111.825 223.433Z" fill="#F0F0F0"/>
<path d="M98.0371 223.433V167.186C98.0371 165.516 100.622 164.158 103.799 164.158C106.977 164.158 109.561 165.516 109.561 167.186V223.433C109.561 225.103 106.977 226.462 103.799 226.462C100.622 226.462 98.0371 225.103 98.0371 223.433Z" fill="#F0F0F0"/>
<path d="M84.2492 223.433V167.186C84.2492 165.516 86.834 164.158 90.0113 164.158C93.1886 164.158 95.7734 165.516 95.7734 167.186V223.433C95.7734 225.103 93.1886 226.462 90.0113 226.462C86.834 226.462 84.2492 225.103 84.2492 223.433Z" fill="#F0F0F0"/>
</g>
<defs>
<clipPath id="clip0_9_89">
<rect width="684" height="386" fill="white"/>
</clipPath>
</defs>
</svg>
